HIERARCHY
ROOT Hips
{
  OFFSET 0 0 0
  CHANNELS 6 Xposition Yposition Zposition Zrotation Yrotation Xrotation
  JOINT LeftThigh
  {
    OFFSET 8.409438 0 -5.917753
    CHANNELS 3 Zrotation Yrotation Xrotation
    JOINT LeftLeg
    {
      OFFSET 0 0 -42.358652
      CHANNELS 3 Zrotation Yrotation Xrotation
      JOINT LeftFoot
      {
        OFFSET 0 0 -39.357303
        CHANNELS 3 Zrotation Yrotation Xrotation
      }
    }
  }
  JOINT RightThigh
  {
    OFFSET -8.409438 0 -5.917753
    CHANNELS 3 Zrotation Yrotation Xrotation
    JOINT RightLeg
    {
      OFFSET 0 0 -42.358652
      CHANNELS 3 Zrotation Yrotation Xrotation
      JOINT RightFoot
      {
        OFFSET 0 0 -39.357303
        CHANNELS 3 Zrotation Yrotation Xrotation
      }
    }
  }
  JOINT SpineLow
  {
    OFFSET 0 0 4.719101
    CHANNELS 3 Zrotation Yrotation Xrotation
    JOINT SpineMid
    {
      OFFSET 0 0 12.899191
      CHANNELS 3 Zrotation Yrotation Xrotation
      JOINT Chest
      {
        OFFSET 0 0 12.899191
        CHANNELS 3 Zrotation Yrotation Xrotation
        JOINT LeftShoulder
        {
          OFFSET 7.550562 1.41573 9.438202
          CHANNELS 3 Zrotation Yrotation Xrotation
          JOINT LeftArm
          {
            OFFSET 9.155056 0 4.247191
            CHANNELS 3 Zrotation Yrotation Xrotation
            JOINT LeftForearm
            {
              OFFSET 0 0 25.771955
              CHANNELS 3 Zrotation Yrotation Xrotation
              JOINT LeftHand
              {
                OFFSET 0 0 25.197169
                CHANNELS 3 Zrotation Yrotation Xrotation
              }
            }
          }
        }
        JOINT RightShoulder
        {
          OFFSET -7.550562 1.41573 9.438202
          CHANNELS 3 Zrotation Yrotation Xrotation
          JOINT RightArm
          {
            OFFSET -9.155056 0 4.247191
            CHANNELS 3 Zrotation Yrotation Xrotation
            JOINT RightForearm
            {
              OFFSET 0 0 -25.771955
              CHANNELS 3 Zrotation Yrotation Xrotation
              JOINT RightHand
              {
                OFFSET 0 0 -25.197169
                CHANNELS 3 Zrotation Yrotation Xrotation
              }
            }
          }
        }
        JOINT Neck
        {
          OFFSET 0 0 15.101124
          CHANNELS 3 Zrotation Yrotation Xrotation
          JOINT Head
          {
            OFFSET 0 0 11.325843
            CHANNELS 3 Zrotation Yrotation Xrotation
            End Site
            {
              OFFSET 0 0 14.157303
            }
          }
        }
      }
    }
  }
}
MOTION
Frames: 17
Frame Time: 0.0
0.0  93.25843  0.0  5.316756  43.031026  -81.36638  5.318918  -11.429512  14.427343  -5.114407  -1.133716  11.229449  7.78878  2.442941  3.624266  -28.761534  -12.354512  -45.946786  9.023927  23.478612  53.011187  9.161009  3.796329  1.28506  0.650556  0.197571  0.302148  1.780702  0.531859  0.831155  1.780702  0.531859  0.831155  -28.097902  21.108286  5.926702  139.149285  42.727291  -164.162118  -20.006338  16.607142  71.559892  57.560163  -22.836337  12.708735  2.14257  -14.810512  10.739991  39.080903  66.569499  -9.651971  -36.621968  -35.373243  -77.495133  53.043966  7.787453  -6.411013  -21.578786  -2.797586  1.17102  -16.175584  -2.142734  0.780325  
0.0  93.25843  0.0  3.866761  40.553094  -82.833117  7.71258  -12.189982  15.61886  -4.88123  -1.385268  10.159331  8.121365  2.459278  3.891467  -25.974411  -12.151585  -45.125922  8.089303  23.25776  52.759094  9.084088  3.626956  1.354207  0.899757  0.083178  0.318661  2.46045  0.215464  0.873985  2.46045  0.215464  0.873986  -28.284629  21.11884  6.073548  140.406235  43.375173  -163.365438  -20.00077  16.428926  71.855466  57.32745  -23.301381  12.729728  1.514286  -14.737904  10.721356  45.153603  66.016827  -5.039964  -35.824508  -35.906419  -79.483256  53.391541  7.451569  -6.596847  -21.339519  -2.78322  1.057328  -15.996733  -2.127435  0.696529  
0.0  93.25843  0.0  3.36873  39.657905  -83.278783  8.622103  -12.644531  16.187788  -4.457239  -1.582662  9.469984  7.773415  2.537389  3.885304  -24.739298  -11.831536  -44.742682  7.089168  23.11751  52.38017  8.923815  3.566345  1.454744  0.874576  0.045181  0.264811  2.39103  0.113904  0.725359  2.39103  0.113904  0.725358  -28.493117  21.136856  6.347181  141.735404  44.027188  -162.429395  -19.963416  15.998832  72.374245  57.202334  -23.728881  12.593968  0.722921  -14.505301  10.666089  51.165397  64.884373  -0.53894  -34.46607  -36.459707  -82.096848  53.610007  7.175706  -6.791194  -20.762478  -2.837799  1.117313  -15.563548  -2.169302  0.742287  
0.0  93.25843  0.0  2.742302  38.653347  -83.796174  9.730934  -13.354121  16.688662  -4.29062  -1.668564  8.76875  7.43906  2.547787  3.896619  -23.490407  -11.84221  -44.228816  6.512849  22.76048  52.144184  8.216424  3.741263  1.432406  0.619049  0.052238  0.146625  1.692421  0.139025  0.402091  1.692421  0.139025  0.402091  -27.089326  21.002436  7.142615  143.159853  44.723428  -161.293107  -20.013153  15.434964  72.970073  57.152797  -24.220483  12.234739  1.367385  -14.613463  10.880453  56.80762  63.28847  3.62487  -32.619252  -36.736917  -85.196444  53.756666  6.940429  -6.900796  -19.50589  -2.96726  1.398208  -14.619448  -2.272844  0.95474  
0.0  93.25843  0.0  2.136665  37.903549  -84.169262  10.46093  -14.095651  17.07146  -4.181931  -1.654039  8.162366  7.313181  2.465614  3.90664  -22.562534  -12.172616  -43.709253  5.925951  23.076476  51.70921  8.221567  3.78394  1.429849  0.510474  -0.002276  0.081357  1.395319  -0.007938  0.222321  1.39532  -0.007938  0.22232  -27.208503  20.985743  7.250039  144.393994  45.464467  -160.198614  -20.320406  14.849103  73.604877  56.924856  -24.734618  11.839037  0.95466  -14.365137  10.643559  61.595425  61.451395  7.032505  -30.402564  -36.491253  -88.521529  53.933735  6.752505  -6.869533  -18.760515  -2.962337  1.439021  -14.060368  -2.268486  0.989074  
0.0  93.25843  0.0  1.490454  37.237088  -84.582035  10.882947  -14.586787  17.50841  -3.885617  -1.939875  7.62904  7.211547  2.389253  3.98485  -21.854  -12.73875  -43.084844  5.725163  23.485307  51.27429  8.341512  3.737652  1.407439  0.344701  -0.066527  -4.0E-6  0.942208  -0.18184  -9.6E-4  0.942208  -0.18184  -9.6E-4  -27.189813  21.029972  7.297337  145.487302  46.335231  -159.280699  -20.894863  14.324505  74.358109  56.351367  -25.181115  11.448118  0.844083  -14.218107  10.597229  65.882201  59.49161  10.050321  -28.076564  -35.615405  -91.921031  54.199885  6.688323  -6.712185  -18.212758  -2.92509  1.376933  -13.650092  -2.237229  0.94619  
0.0  93.25843  0.0  0.898723  36.761108  -84.920516  10.865887  -14.477372  18.113389  -3.23141  -2.695306  7.048996  7.258542  2.248361  4.394999  -21.37636  -13.417993  -42.347909  5.895497  23.731724  50.719891  8.422942  3.53699  1.411532  0.183037  -0.152768  -0.082222  0.500838  -0.41695  -0.225902  0.500838  -0.41695  -0.225902  -27.530221  21.202778  7.084635  146.673731  47.343338  -158.301755  -21.650647  14.072593  75.060208  55.681298  -25.672123  11.187379  0.334051  -13.973256  10.536065  70.1579  57.412115  12.912889  -25.914431  -34.15098  -95.166832  54.452107  6.754268  -6.473616  -17.429044  -2.750638  1.469844  -13.062747  -2.106951  1.024626  
0.0  93.25843  0.0  0.266673  36.12342  -85.324454  10.508984  -14.588239  18.693781  -2.303065  -3.254957  7.021058  6.980516  1.998718  4.332334  -20.763418  -14.081078  -41.453814  6.210944  23.634722  49.985347  8.301417  3.310512  1.54128  0.013734  -0.2105  -0.15271  0.038871  -0.575292  -0.417547  0.038871  -0.575292  -0.417547  -28.313179  21.167608  6.610472  148.807559  48.380824  -156.996904  -22.409171  14.149099  75.651037  55.088818  -26.207735  11.133064  -0.087822  -13.969055  10.533826  74.425756  55.353986  15.716389  -23.942784  -32.382182  -98.343535  54.805426  6.904742  -5.774068  -16.66564  -2.708867  1.570154  -12.49004  -2.076322  1.104421  
0.0  93.25843  0.0  -0.339878  35.463566  -85.784187  9.893348  -14.497941  19.214607  -1.27373  -3.861384  7.234041  6.90707  2.115329  4.364641  -20.064155  -14.787616  -40.460377  6.748019  23.174253  49.289085  7.967919  3.261995  1.802814  -0.138924  -0.281138  -0.201223  -0.377409  -0.76961  -0.54843  -0.377409  -0.76961  -0.54843  -28.664819  21.259201  6.251292  150.600915  49.601821  -155.522964  -23.105721  14.152891  76.313661  54.366929  -26.691089  11.242256  -0.550309  -13.881249  10.541143  78.34699  53.432168  18.271124  -22.083983  -30.62391  -101.363995  55.349134  7.151866  -4.770467  -15.814176  -2.607458  1.74634  -11.85125  -2.002397  1.242979  
0.0  93.25843  0.0  -1.07141  34.414415  -86.406262  9.26144  -14.216389  19.865318  0.198428  -4.27037  7.535635  7.167857  2.087972  4.783303  -18.920683  -15.614876  -39.158352  7.825559  22.056133  48.81378  6.691501  3.258559  1.866757  -0.245799  -0.369541  -0.218636  -0.668568  -1.012304  -0.593899  -0.668568  -1.012304  -0.593899  -28.996688  21.404436  5.808374  152.603264  50.956624  -153.818221  -23.73324  13.867108  77.017353  53.395997  -27.160266  11.491093  -0.744726  -13.83668  10.606375  82.007781  51.649573  20.829046  -20.23516  -29.12379  -104.428001  56.050177  7.415554  -3.802481  -15.02533  -2.514695  1.896004  -11.259518  -1.934049  1.360869  
0.0  93.25843  0.0  -1.778467  33.112677  -87.062442  8.600219  -14.482537  20.160327  1.928908  -3.952473  8.811591  7.666376  2.002842  5.050764  -17.893694  -16.586341  -37.766654  8.383406  21.590645  47.896957  6.316375  3.425326  2.116672  -0.332884  -0.468206  -0.231829  -0.905512  -1.282943  -0.627294  -0.905512  -1.282943  -0.627294  -29.220876  21.709918  5.312299  154.830753  52.415706  -151.899006  -24.287424  13.418239  77.71266  52.304658  -27.609173  11.795246  -0.866986  -13.706472  10.960423  85.289162  50.062461  23.061649  -18.180514  -27.931491  -107.462987  56.719215  7.567687  -3.254818  -14.072093  -2.346866  2.206245  -10.544287  -1.812122  1.601379  
0.0  93.25843  0.0  -2.327254  31.608533  -87.669418  8.422113  -15.017609  19.941303  4.015733  -3.731468  11.003004  7.596634  2.017129  5.389413  -16.845413  -17.491534  -36.272268  8.780164  21.381166  46.849746  6.103632  3.692788  2.383206  -0.390128  -0.554225  -0.240398  -1.061027  -1.518735  -0.648247  -1.061027  -1.518735  -0.648247  -29.48  22.136112  4.732836  157.322127  53.96036  -149.839469  -24.787636  13.00692  78.405845  51.309169  -28.070464  11.936317  -1.034693  -13.565374  11.63265  88.256346  48.652163  25.033578  -15.957247  -26.94021  -110.372774  57.24376  7.524861  -3.266313  -13.129328  -2.14074  2.597313  -9.836966  -1.662303  1.902781  
0.0  93.25843  0.0  -2.660301  29.986125  -88.199416  8.845302  -15.389766  19.515117  5.929748  -4.166521  13.764927  6.835225  2.219395  5.744065  -15.361776  -17.980378  -34.985769  8.648624  21.487664  45.838117  6.057695  3.867439  2.567338  -0.423906  -0.612332  -0.226655  -1.153182  -1.677646  -0.608905  -1.153182  -1.677646  -0.608904  -29.736677  22.56398  4.138214  160.164654  55.609372  -147.424528  -25.25601  12.785042  79.037158  50.531331  -28.599385  11.696046  -1.164472  -13.476173  12.348671  90.930479  47.239682  26.792305  -13.486977  -26.089268  -113.088407  57.501109  7.45829  -3.655758  -12.208483  -1.936514  2.980951  -9.146307  -1.512698  2.197836  
0.0  93.25843  0.0  -2.873188  28.25665  -88.783009  9.54182  -15.338328  18.888135  6.924914  -5.216869  16.975648  6.042647  2.364016  6.07451  -13.552705  -18.229426  -33.629022  8.331503  21.659174  44.822414  5.939917  3.900723  2.641592  -0.433056  -0.653791  -0.170014  -1.179378  -1.790042  -0.453092  -1.179378  -1.790042  -0.453091  -29.996217  22.884745  3.540383  163.459122  57.240025  -144.523505  -25.778776  12.93806  79.524234  49.813703  -29.054429  11.289137  -1.291466  -13.365409  12.994237  93.418611  45.689576  28.331285  -11.862241  -24.925889  -115.22925  56.974294  7.175487  -4.441587  -11.314356  -1.728845  3.294817  -8.476098  -1.358236  2.439897  
0.0  93.25843  0.0  -3.088809  26.440639  -89.439331  10.402927  -15.009126  17.934021  6.571511  -6.557904  20.453556  5.661129  2.718028  6.45734  -11.800531  -18.419044  -32.142113  8.066805  21.550131  43.726136  5.860983  3.975042  2.746562  -0.414156  -0.688667  -0.106954  -1.129287  -1.884168  -0.280612  -1.129287  -1.884168  -0.280613  -30.174341  22.985685  3.167501  167.03892  58.58478  -141.200191  -26.458751  13.409517  79.880977  49.090988  -29.388953  10.864349  -1.385921  -13.234477  13.675443  95.612647  43.873487  29.60973  -9.650957  -23.942054  -117.3377  57.430672  7.429666  -4.243281  -10.488654  -1.495553  3.623071  -7.857508  -1.184313  2.692415  
0.0  93.25843  0.0  -3.337989  24.50099  -90.048894  11.103064  -15.030462  16.439715  5.138317  -6.968436  24.386739  5.974378  3.068858  6.808403  -10.146742  -18.616077  -30.646981  8.185032  21.021618  42.720264  5.632232  4.178495  2.837594  -0.363766  -0.718554  -0.063845  -0.99269  -1.965003  -0.163743  -0.99269  -1.965003  -0.163743  -30.282007  22.843795  2.992218  170.583508  59.522814  -137.804983  -27.241727  14.109466  80.181384  48.392051  -29.741992  10.547709  -1.289001  -13.205578  14.351687  97.506433  41.719094  30.788942  -8.54775  -22.395033  -118.727726  58.071467  7.683226  -3.769555  -9.659519  -1.243638  4.012306  -7.236563  -0.996497  2.990337  
0.0  93.25843  0.0  -3.548823  22.494693  -90.490344  12.075868  -15.503984  15.005058  2.997077  -6.450057  27.993674  6.544494  3.425093  7.056351  -8.47933  -18.819822  -29.264745  8.191386  20.500955  41.518809  5.478347  4.284483  2.957655  -0.294056  -0.744269  -0.041678  -0.802723  -2.034856  -0.104899  -0.802723  -2.034856  -0.104899  -30.384326  22.486295  2.763356  173.77975  60.079958  -134.713403  -28.127455  14.844388  80.419973  47.640744  -30.114092  10.620665  -1.097333  -13.132375  14.978254  99.302805  39.378463  31.907998  -8.920036  -20.297241  -119.391044  58.777039  7.855609  -3.339805  -8.881725  -0.977504  4.379726  -6.654535  -0.797033  3.271327  
